HIERARCHY
ROOT Pelvis
{
	OFFSET 0.000000 0.000000 0.000000
	CHANNELS 6 Xposition Yposition Zposition Xrotation Yrotation Zrotation
	JOINT LeftUpLeg_virtual
	{
		OFFSET 0.000000 0.000000 0.000000
		CHANNELS 3 Xrotation Yrotation Zrotation
		JOINT LeftUpLeg
		{
			OFFSET 8.479700 -4.795502 -0.379100
			CHANNELS 3 Xrotation Yrotation Zrotation
			JOINT LeftLeg
			{
				OFFSET 0.024144 -32.555107 0.112900
				CHANNELS 3 Xrotation Yrotation Zrotation
				JOINT LeftFoot
				{
					OFFSET -0.024144 -32.638630 -3.012600
					CHANNELS 3 Xrotation Yrotation Zrotation
					JOINT LeftToeBase
					{
						OFFSET 0.970200 -13.225400 11.864200
						CHANNELS 3 Xrotation Yrotation Zrotation
						End Site
						{
							OFFSET 0 0 0
						}
					}
				}
			}
		}
	}
	JOINT RightUpLeg_virtual
	{
		OFFSET 0.000000 0.000000 0.000000
		CHANNELS 3 Xrotation Yrotation Zrotation
		JOINT RightUpLeg
		{
			OFFSET -8.479700 -4.795502 -0.379100
			CHANNELS 3 Xrotation Yrotation Zrotation
			JOINT RightLeg
			{
				OFFSET -0.023144 -32.555092 0.112900
				CHANNELS 3 Xrotation Yrotation Zrotation
				JOINT RightFoot
				{
					OFFSET 0.023144 -32.638641 -3.012700
					CHANNELS 3 Xrotation Yrotation Zrotation
					JOINT RightToeBase
					{
						OFFSET -0.970200 -13.225400 11.864200
						CHANNELS 3 Xrotation Yrotation Zrotation
						End Site
						{
							OFFSET 0 0 0
						}
					}
				}
			}
		}
	}
	JOINT Hips_virtual
	{
		OFFSET 0.000000 0.000000 0.000000
		CHANNELS 3 Xrotation Yrotation Zrotation
		JOINT Hips
		{
			OFFSET -0.000000 -0.000000 -0.000000
			CHANNELS 3 Xrotation Yrotation Zrotation
			JOINT Spine
			{
				OFFSET 0.000000 7.722000 1.166200
				CHANNELS 3 Xrotation Yrotation Zrotation
				JOINT Spine1
				{
					OFFSET 0.000000 12.024101 0.248800
					CHANNELS 3 Xrotation Yrotation Zrotation
					JOINT Spine2
					{
						OFFSET 0.000000 11.502998 -0.491200
						CHANNELS 3 Xrotation Yrotation Zrotation
						JOINT Neck_virtual
						{
							OFFSET 0.000000 0.000000 0.000000
							CHANNELS 3 Xrotation Yrotation Zrotation
							JOINT Neck
							{
								OFFSET 0.000000 18.430702 -3.123100
								CHANNELS 3 Xrotation Yrotation Zrotation
								JOINT Head
								{
									OFFSET 0.000000 9.051102 1.034000
									CHANNELS 3 Xrotation Yrotation Zrotation
									End Site
									{
										OFFSET 0 0 0
									}
								}
							}
						}
						JOINT LeftShoulder_virtual
						{
							OFFSET 0.000000 0.000000 0.000000
							CHANNELS 3 Xrotation Yrotation Zrotation
							JOINT LeftShoulder
							{
								OFFSET 6.197800 13.665199 -4.064700
								CHANNELS 3 Xrotation Yrotation Zrotation
								JOINT LeftArm
								{
									OFFSET 7.778100 -0.187103 -1.709300
									CHANNELS 3 Xrotation Yrotation Zrotation
									JOINT LeftForeArm
									{
										OFFSET 22.049376 0.000000 0.000000
										CHANNELS 3 Xrotation Yrotation Zrotation
										JOINT LeftHand
										{
											OFFSET 23.009392 0.000000 0.000000
											CHANNELS 3 Xrotation Yrotation Zrotation
											End Site
											{
												OFFSET 0 0 0
											}
										}
									}
								}
							}
						}
						JOINT RightShoulder_virtual
						{
							OFFSET 0.000000 0.000000 0.000000
							CHANNELS 3 Xrotation Yrotation Zrotation
							JOINT RightShoulder
							{
								OFFSET -6.197800 13.665199 -4.064700
								CHANNELS 3 Xrotation Yrotation Zrotation
								JOINT RightArm
								{
									OFFSET -7.778100 -0.187103 -1.709300
									CHANNELS 3 Xrotation Yrotation Zrotation
									JOINT RightForeArm
									{
										OFFSET -22.049376 0.000000 0.000000
										CHANNELS 3 Xrotation Yrotation Zrotation
										JOINT RightHand
										{
											OFFSET -23.009392 0.000000 0.000000
											CHANNELS 3 Xrotation Yrotation Zrotation
											End Site
											{
												OFFSET 0 0 0
											}
										}
									}
								}
							}
						}
					}
				}
			}
		}
	}
}
MOTION
Frames: 6
Frame Time: 0.03333333
-0.249438 70.702019 0.244473 0.000000 0.000000 0.000000 11.695711 -49.489252 11.290164 -64.578578 28.127812 42.220995 45.036106 -20.081209 3.175734 2.545511 0.952071 -10.119477 0.000000 0.000000 0.000000 11.695711 -49.489252 11.290164 -33.975523 -0.459149 -24.258190 53.259612 1.997649 -6.750469 -26.565117 -2.745222 24.293552 0.000000 0.000000 0.000000 11.695711 -49.489252 11.290164 0.000000 -0.000001 0.000000 10.973402 2.836673 -2.050397 6.100707 5.566556 -4.284692 0.000000 0.000000 0.000000 -5.786912 6.328134 -3.046181 2.319046 9.363323 -0.265467 0.000000 0.000000 0.000000 -5.786912 6.328134 -3.046181 -1.875342 -16.181679 -2.870472 -10.644689 2.164661 -45.510630 -22.862369 -25.786239 -15.871638 0.000000 0.000000 0.000000 -5.786912 6.328134 -3.046181 -5.074638 24.343810 1.482711 6.642380 -34.733817 57.610419 -21.031973 44.833806 19.961643 0.000000 0.000000 0.000000 
0.288450 70.790169 1.033361 0.000000 0.000000 0.000000 11.479731 -50.086546 11.066778 -64.534161 28.238271 42.329875 46.479027 -19.610954 3.011864 1.258200 0.985727 -9.235854 0.000000 0.000000 0.000000 11.479731 -50.086546 11.066778 -33.142397 -0.201284 -24.538745 51.697268 2.196538 -7.020396 -25.329231 -3.289341 25.147261 0.000000 0.000000 0.000000 11.479731 -50.086546 11.066778 0.000000 -0.000004 0.000000 10.935975 2.820065 -1.988167 6.124979 5.554773 -4.185732 0.000000 0.000000 0.000000 -5.749233 6.252891 -2.945711 2.454513 9.259351 0.283438 0.000000 0.000000 0.000000 -5.749233 6.252891 -2.945711 -1.890574 -15.766098 -3.028446 -10.843715 2.172856 -45.626989 -22.239285 -25.278206 -15.651659 0.000000 0.000000 0.000000 -5.749233 6.252891 -2.945711 -5.114985 24.192849 1.600715 7.019144 -34.769409 57.282884 -21.780870 43.487002 20.030015 0.000000 0.000000 0.000000 
0.936997 70.926743 1.824760 0.000000 0.000000 0.000000 11.292762 -50.852565 10.891917 -64.361624 28.477760 42.395394 47.665899 -19.097885 2.793128 0.066351 1.071388 -8.347444 0.000000 0.000000 0.000000 11.292762 -50.852565 10.891917 -32.334522 0.065244 -24.873315 49.883460 2.459069 -7.236647 -23.968204 -3.662289 25.989259 0.000000 0.000000 0.000000 11.292762 -50.852565 10.891917 0.000000 0.000001 0.000000 10.837168 2.811495 -1.919746 6.211053 5.531378 -4.085918 0.000000 0.000000 0.000000 -5.634573 6.080643 -2.847561 2.506712 8.998877 0.963304 0.000000 0.000000 0.000000 -5.634573 6.080643 -2.847561 -1.898937 -15.838104 -3.026463 -10.916597 3.036735 -45.852703 -21.654543 -24.915514 -15.679234 0.000000 0.000000 0.000000 -5.634573 6.080643 -2.847561 -5.162242 24.117331 1.733596 7.217163 -34.742901 57.034812 -22.411801 42.270081 20.016501 0.000000 0.000000 0.000000 
1.684059 71.086197 2.712568 0.000000 0.000000 0.000000 11.189520 -51.840477 10.780707 -64.134404 28.779012 42.430720 48.897522 -18.459638 2.562166 -1.258735 1.242072 -7.409218 0.000000 0.000000 0.000000 11.189520 -51.840477 10.780707 -31.518772 0.320825 -25.369880 47.700480 2.875383 -7.335752 -22.483456 -3.866654 26.865157 0.000000 0.000000 0.000000 11.189520 -51.840477 10.780707 0.000000 -0.000005 0.000001 10.680847 2.791284 -1.833763 6.304671 5.446444 -3.965666 0.000000 0.000000 0.000000 -5.493479 5.769522 -2.734777 2.557823 8.625431 1.729381 0.000000 0.000000 0.000000 -5.493479 5.769522 -2.734777 -1.912184 -15.416606 -3.171548 -11.148244 3.692014 -46.007522 -20.985177 -24.405058 -15.663017 0.000000 0.000000 0.000000 -5.493479 5.769522 -2.734777 -5.215425 24.184388 1.892620 6.918580 -34.742170 56.575290 -22.804864 40.833524 19.736783 0.000000 0.000000 0.000000 
2.467553 71.248901 3.542730 0.000000 0.000000 0.000000 11.136936 -52.827559 10.717441 -63.890395 29.119333 42.396412 49.909592 -17.763440 2.310032 -2.433776 1.381438 -6.512096 0.000000 0.000000 0.000000 11.136936 -52.827559 10.717441 -30.769657 0.570077 -25.894765 45.485874 3.318122 -7.335598 -21.117902 -4.068943 27.655248 0.000000 0.000000 0.000000 11.136936 -52.827559 10.717441 0.000000 -0.000002 0.000000 10.472890 2.765159 -1.731245 6.431334 5.341321 -3.845166 0.000000 0.000000 0.000000 -5.301525 5.369792 -2.622323 2.568979 8.163876 2.542381 0.000000 0.000000 0.000000 -5.301525 5.369792 -2.622323 -1.914490 -15.246487 -3.208162 -11.410821 4.730151 -46.239267 -20.337908 -23.776862 -15.687818 0.000000 0.000000 0.000000 -5.301525 5.369792 -2.622323 -5.246647 23.749261 2.050735 6.457535 -34.285408 56.086061 -23.251142 39.750417 19.622498 0.000000 0.000000 0.000000 
3.318097 71.412834 4.316029 0.000000 0.000000 0.000000 11.219451 -53.902087 10.781467 -63.700475 29.517024 42.357295 50.755549 -17.016935 2.002781 -3.492784 1.525851 -5.612144 0.000000 0.000000 0.000000 11.219451 -53.902087 10.781467 -30.212116 0.792124 -26.621356 43.039846 4.100402 -7.209776 -19.269914 -4.145598 29.006703 0.000000 0.000000 0.000000 11.219451 -53.902087 10.781467 0.000000 -0.000003 0.000000 10.207500 2.735368 -1.616016 6.572005 5.219579 -3.718907 0.000000 0.000000 0.000000 -5.076625 4.889334 -2.505319 2.574570 7.620947 3.364537 0.000000 0.000000 0.000000 -5.076625 4.889334 -2.505319 -1.914363 -15.192412 -3.199653 -11.665618 6.112172 -46.489273 -19.715107 -23.164455 -15.839130 0.000000 0.000000 0.000000 -5.076625 4.889334 -2.505319 -5.297485 23.560502 2.223739 6.035450 -34.040355 55.710387 -23.725256 39.021154 19.652642 0.000000 0.000000 0.000000 
